<svg width="325" height="237" viewBox="0 0 325 237" fill="none" xmlns="http://www.w3.org/2000/svg">
<mask id="mask0_37_382" style="mask-type:alpha" maskUnits="userSpaceOnUse" x="0" y="0" width="325" height="237">
<rect width="325" height="237" fill="#D9D9D9" style="fill:#D9D9D9;fill:color(display-p3 0.8510 0.8510 0.8510);fill-opacity:1;"/>
</mask>
<g mask="url(#mask0_37_382)">
<path fill-rule="evenodd" clip-rule="evenodd" d="M340.308 -1.10937C413.263 -6.03076 488.788 -34.5366 551.273 3.44063C626.847 49.3732 697.682 126.011 694.902 214.405C692.152 301.844 599.726 350.111 538.407 412.504C476.141 475.861 429.14 575.283 340.308 575.212C251.491 575.141 202.981 477.255 142.526 412.188C85.7166 351.045 2.13266 297.815 5.07564 214.405C7.9864 131.909 86.5708 74.7437 156.007 30.1044C210.493 -4.92351 275.681 3.25022 340.308 -1.10937Z" fill="#E8F4ED" style="fill:#E8F4ED;fill:color(display-p3 0.9098 0.9569 0.9294);fill-opacity:1;"/>
<path fill-rule="evenodd" clip-rule="evenodd" d="M342.563 51.4347C398.602 47.6555 456.615 25.7655 504.612 54.9287C562.664 90.201 617.075 149.052 614.939 216.932C612.827 284.077 541.831 321.142 494.73 369.055C446.901 417.707 410.798 494.055 342.563 494C274.339 493.945 237.076 418.777 190.639 368.812C147.001 321.859 82.7975 280.983 85.0581 216.932C87.294 153.582 147.658 109.683 200.994 75.4042C242.847 48.5058 292.92 54.7825 342.563 51.4347Z" fill="#D3E9E7" style="fill:#D3E9E7;fill:color(display-p3 0.8275 0.9137 0.9059);fill-opacity:1;"/>
</g>
</svg>
