<svg width="178" height="544" viewBox="0 0 178 544" fill="none" xmlns="http://www.w3.org/2000/svg">
<mask id="mask0_37_383" style="mask-type:alpha" maskUnits="userSpaceOnUse" x="0" y="0" width="178" height="544">
<rect width="178" height="544" fill="#D9D9D9" style="fill:#D9D9D9;fill:color(display-p3 0.8510 0.8510 0.8510);fill-opacity:1;"/>
</mask>
<g mask="url(#mask0_37_383)">
<path fill-rule="evenodd" clip-rule="evenodd" d="M-194.692 34.8906C-121.737 29.9692 -46.2122 1.46338 16.273 39.4406C91.8475 85.3732 162.682 162.011 159.902 250.405C157.152 337.844 64.7261 386.111 3.40692 448.504C-58.8589 511.861 -105.86 611.283 -194.692 611.212C-283.509 611.141 -332.019 513.255 -392.474 448.188C-449.283 387.045 -532.867 333.815 -529.924 250.405C-527.014 167.909 -448.429 110.744 -378.993 66.1044C-324.507 31.0765 -259.319 39.2502 -194.692 34.8906Z" fill="#E8F4ED" style="fill:#E8F4ED;fill:color(display-p3 0.9098 0.9569 0.9294);fill-opacity:1;"/>
<path fill-rule="evenodd" clip-rule="evenodd" d="M-192.437 87.4347C-136.398 83.6555 -78.3848 61.7655 -30.3876 90.9287C27.664 126.201 82.0747 185.052 79.9391 252.932C77.8267 320.077 6.83105 357.142 -40.2705 405.055C-88.0992 453.707 -124.202 530.055 -192.437 530C-260.661 529.945 -297.924 454.777 -344.361 404.812C-387.999 357.859 -452.203 316.983 -449.942 252.932C-447.706 189.582 -387.342 145.683 -334.006 111.404C-292.153 84.5058 -242.08 90.7825 -192.437 87.4347Z" fill="#D3E9E7" style="fill:#D3E9E7;fill:color(display-p3 0.8275 0.9137 0.9059);fill-opacity:1;"/>
</g>
</svg>
