<svg width="275" height="275" viewBox="0 0 275 275" fill="none" xmlns="http://www.w3.org/2000/svg">
<path d="M275 274.4C253.2 250.6 231.5 226.7 203 221.6C174.5 216.4 139.4 230 113.7 222C88 214 71.8 184.5 57.4 158.1C42.9 131.7 30.2 108.3 21.1 82.5C11.9 56.7 6.19998 28.3 0.599976 0H275V274.4Z" fill="#E8F4ED" style="fill:#E8F4ED;fill:color(display-p3 0.9098 0.9569 0.9294);fill-opacity:1;"/>
<path d="M275 137.2C264.1 125.3 253.2 113.4 239 110.8C224.8 108.2 207.2 115 194.4 111C181.5 107 173.4 92.3 166.2 79.1C159 65.8 152.6 54.2 148 41.3C143.4 28.3 140.6 14.2 137.8 0H275V137.2Z" fill="#D3E9E7" style="fill:#D3E9E7;fill:color(display-p3 0.8275 0.9137 0.9059);fill-opacity:1;"/>
</svg>
